<mxfile host="Electron" agent="Mozilla/5.0 (Windows NT 10.0; Win64; x64) AppleWebKit/537.36 (KHTML, like Gecko) draw.io/26.0.4 Chrome/128.0.6613.186 Electron/32.2.5 Safari/537.36" version="26.0.4">
  <diagram name="Страница — 1" id="UCaennf2npmurHd1YmM6">
    <mxGraphModel dx="3585" dy="3259" grid="1" gridSize="10" guides="1" tooltips="1" connect="1" arrows="1" fold="1" page="1" pageScale="1" pageWidth="827" pageHeight="1169" math="0" shadow="0">
      <root>
        <mxCell id="0" />
        <mxCell id="1" parent="0" />
        <mxCell id="LSGmILdVyqXVEuh26CQM-200" value="" style="rounded=0;whiteSpace=wrap;html=1;fontFamily=Helvetica;fontSize=11;fontColor=default;labelBackgroundColor=default;fillColor=none;strokeColor=none;movable=0;resizable=0;rotatable=0;deletable=0;editable=0;locked=1;connectable=0;" parent="1" vertex="1">
          <mxGeometry x="80" y="-440" width="4020" height="2120" as="geometry" />
        </mxCell>
        <mxCell id="LSGmILdVyqXVEuh26CQM-151" value="" style="rounded=1;whiteSpace=wrap;html=1;fontFamily=Helvetica;fontSize=11;fontColor=default;labelBackgroundColor=default;fillColor=none;dashed=1;movable=0;resizable=0;rotatable=0;deletable=0;editable=0;locked=1;connectable=0;" parent="1" vertex="1">
          <mxGeometry x="2520" y="-360" width="1530" height="870" as="geometry" />
        </mxCell>
        <mxCell id="LSGmILdVyqXVEuh26CQM-152" value="" style="rounded=1;whiteSpace=wrap;html=1;fontFamily=Helvetica;fontSize=11;fontColor=default;labelBackgroundColor=default;fillColor=none;dashed=1;movable=1;resizable=1;rotatable=1;deletable=1;editable=1;locked=0;connectable=1;" parent="1" vertex="1">
          <mxGeometry x="134" y="-360" width="1530" height="870" as="geometry" />
        </mxCell>
        <mxCell id="8wOTZfcab9I5ijcCHoGj-39" value="" style="rounded=1;whiteSpace=wrap;html=1;dashed=1;fillColor=none;points=[[0,0,0,0,0],[0,0.17,0,0,0],[0,0.29,0,0,0],[0,0.43,0,0,0],[0,0.56,0,0,0],[0,0.7,0,0,0],[0,0.83,0,0,0],[0,1,0,0,0],[0.16,0,0,0,0],[0.16,1,0,0,0],[0.28,0,0,0,0],[0.28,1,0,0,0],[0.4,0,0,0,0],[0.4,1,0,0,0],[0.59,0,0,0,0],[0.59,1,0,0,0],[0.7,0,0,0,0],[0.7,1,0,0,0],[0.82,0,0,0,0],[0.82,1,0,0,0],[1,0,0,0,0],[1,0.17,0,0,0],[1,0.29,0,0,0],[1,0.43,0,0,0],[1,0.56,0,0,0],[1,0.7,0,0,0],[1,0.83,0,0,0],[1,1,0,0,0]];" parent="1" vertex="1">
          <mxGeometry x="227.9999999999999" y="-295.37" width="210" height="210" as="geometry" />
        </mxCell>
        <mxCell id="8wOTZfcab9I5ijcCHoGj-40" value="&lt;font style=&quot;font-size: 18px;&quot;&gt;VPC-01&lt;/font&gt;" style="text;html=1;align=center;verticalAlign=middle;whiteSpace=wrap;rounded=0;fontFamily=Helvetica;fontSize=11;fontColor=default;labelBackgroundColor=default;" parent="1" vertex="1">
          <mxGeometry x="273.37" y="-135.37" width="119.25" height="30" as="geometry" />
        </mxCell>
        <mxCell id="LSGmILdVyqXVEuh26CQM-5" value="" style="shape=mxgraph.cisco.switches.workgroup_switch;sketch=0;html=1;pointerEvents=1;dashed=0;fillColor=#036897;strokeColor=#ffffff;strokeWidth=2;verticalLabelPosition=bottom;verticalAlign=top;align=center;outlineConnect=0;fontFamily=Helvetica;fontSize=11;fontColor=default;labelBackgroundColor=default;" parent="1" vertex="1">
          <mxGeometry x="919.75" y="46" width="130.5" height="62" as="geometry" />
        </mxCell>
        <mxCell id="LSGmILdVyqXVEuh26CQM-6" value="" style="rounded=1;whiteSpace=wrap;html=1;dashed=1;fillColor=none;points=[[0,0,0,0,0],[0,0.17,0,0,0],[0,0.29,0,0,0],[0,0.43,0,0,0],[0,0.56,0,0,0],[0,0.7,0,0,0],[0,0.83,0,0,0],[0,1,0,0,0],[0.16,0,0,0,0],[0.16,1,0,0,0],[0.28,0,0,0,0],[0.28,1,0,0,0],[0.4,0,0,0,0],[0.4,1,0,0,0],[0.59,0,0,0,0],[0.59,1,0,0,0],[0.7,0,0,0,0],[0.7,1,0,0,0],[0.82,0,0,0,0],[0.82,1,0,0,0],[1,0,0,0,0],[1,0.17,0,0,0],[1,0.29,0,0,0],[1,0.43,0,0,0],[1,0.56,0,0,0],[1,0.7,0,0,0],[1,0.83,0,0,0],[1,1,0,0,0]];" parent="1" vertex="1">
          <mxGeometry x="880" y="-20" width="210" height="210" as="geometry" />
        </mxCell>
        <mxCell id="LSGmILdVyqXVEuh26CQM-7" value="&lt;font style=&quot;font-size: 18px;&quot;&gt;Agg-SW01-BR01&lt;/font&gt;&lt;div&gt;&lt;font style=&quot;font-size: 18px;&quot;&gt;lo0: 2.2.2.10/32&lt;/font&gt;&lt;/div&gt;" style="text;html=1;align=center;verticalAlign=middle;whiteSpace=wrap;rounded=0;fontFamily=Helvetica;fontSize=11;fontColor=default;labelBackgroundColor=default;" parent="1" vertex="1">
          <mxGeometry x="910.9399999999999" y="141" width="148.12" height="30" as="geometry" />
        </mxCell>
        <mxCell id="LSGmILdVyqXVEuh26CQM-8" value="" style="rounded=1;whiteSpace=wrap;html=1;dashed=1;fillColor=none;points=[[0,0,0,0,0],[0,0.17,0,0,0],[0,0.29,0,0,0],[0,0.43,0,0,0],[0,0.56,0,0,0],[0,0.7,0,0,0],[0,0.83,0,0,0],[0,1,0,0,0],[0.16,0,0,0,0],[0.16,1,0,0,0],[0.28,0,0,0,0],[0.28,1,0,0,0],[0.4,0,0,0,0],[0.4,1,0,0,0],[0.59,0,0,0,0],[0.59,1,0,0,0],[0.7,0,0,0,0],[0.7,1,0,0,0],[0.82,0,0,0,0],[0.82,1,0,0,0],[1,0,0,0,0],[1,0.17,0,0,0],[1,0.29,0,0,0],[1,0.43,0,0,0],[1,0.56,0,0,0],[1,0.7,0,0,0],[1,0.83,0,0,0],[1,1,0,0,0]];" parent="1" vertex="1">
          <mxGeometry x="2000" y="-19" width="210" height="210" as="geometry" />
        </mxCell>
        <mxCell id="LSGmILdVyqXVEuh26CQM-9" value="" style="points=[[0,0.64,0],[0.2,0.15,0],[0.4,0.01,0],[0.79,0.25,0],[1,0.65,0],[0.8,0.86,0],[0.41,1,0],[0.16,0.86,0]];verticalLabelPosition=bottom;sketch=0;html=1;verticalAlign=top;aspect=fixed;align=center;pointerEvents=1;shape=mxgraph.cisco19.cloud2;fillColor=#FFE9AA;strokeColor=none;fontFamily=Helvetica;fontSize=11;fontColor=default;labelBackgroundColor=default;" parent="1" vertex="1">
          <mxGeometry x="2030.83" y="33.5" width="148.34" height="89" as="geometry" />
        </mxCell>
        <mxCell id="LSGmILdVyqXVEuh26CQM-10" value="&lt;font style=&quot;font-size: 18px;&quot;&gt;ISP&lt;/font&gt;&lt;div&gt;&lt;font style=&quot;font-size: 18px;&quot;&gt;lo0: 8.8.8.8/32&lt;/font&gt;&lt;/div&gt;" style="text;html=1;align=center;verticalAlign=middle;whiteSpace=wrap;rounded=0;fontFamily=Helvetica;fontSize=11;fontColor=default;labelBackgroundColor=default;" parent="1" vertex="1">
          <mxGeometry x="2045.37" y="147.75" width="119.25" height="30" as="geometry" />
        </mxCell>
        <mxCell id="LSGmILdVyqXVEuh26CQM-14" value="" style="rounded=1;whiteSpace=wrap;html=1;dashed=1;fillColor=none;points=[[0,0,0,0,0],[0,0.17,0,0,0],[0,0.29,0,0,0],[0,0.43,0,0,0],[0,0.56,0,0,0],[0,0.7,0,0,0],[0,0.83,0,0,0],[0,1,0,0,0],[0.16,0,0,0,0],[0.16,1,0,0,0],[0.28,0,0,0,0],[0.28,1,0,0,0],[0.4,0,0,0,0],[0.4,1,0,0,0],[0.59,0,0,0,0],[0.59,1,0,0,0],[0.7,0,0,0,0],[0.7,1,0,0,0],[0.82,0,0,0,0],[0.82,1,0,0,0],[1,0,0,0,0],[1,0.17,0,0,0],[1,0.29,0,0,0],[1,0.43,0,0,0],[1,0.56,0,0,0],[1,0.7,0,0,0],[1,0.83,0,0,0],[1,1,0,0,0]];container=0;movable=1;resizable=1;rotatable=1;deletable=1;editable=1;locked=0;connectable=1;" parent="1" vertex="1">
          <mxGeometry x="1400" y="-19" width="210" height="210" as="geometry" />
        </mxCell>
        <mxCell id="LSGmILdVyqXVEuh26CQM-15" value="" style="shape=mxgraph.cisco.routers.router;sketch=0;html=1;pointerEvents=1;dashed=0;fillColor=#036897;strokeColor=#ffffff;strokeWidth=2;verticalLabelPosition=bottom;verticalAlign=top;align=center;outlineConnect=0;fontFamily=Helvetica;fontSize=11;fontColor=default;labelBackgroundColor=default;" parent="1" vertex="1">
          <mxGeometry x="1454.37" y="41" width="101.25" height="62" as="geometry" />
        </mxCell>
        <mxCell id="LSGmILdVyqXVEuh26CQM-16" value="&lt;font style=&quot;font-size: 18px;&quot;&gt;Border01-BR01&lt;/font&gt;&lt;div&gt;&lt;font style=&quot;font-size: 18px;&quot;&gt;lo0: 2.2.2.2/32&lt;/font&gt;&lt;/div&gt;&lt;div&gt;&lt;font style=&quot;font-size: 18px;&quot;&gt;tun1: 172.16.10.2/30&lt;/font&gt;&lt;/div&gt;" style="text;html=1;align=center;verticalAlign=middle;whiteSpace=wrap;rounded=0;fontFamily=Helvetica;fontSize=11;fontColor=default;labelBackgroundColor=default;" parent="1" vertex="1">
          <mxGeometry x="1421.53" y="141" width="174.63" height="30" as="geometry" />
        </mxCell>
        <mxCell id="LSGmILdVyqXVEuh26CQM-23" value="" style="outlineConnect=0;fillColor=none;strokeColor=#036897;gradientColor=none;gradientDirection=north;strokeWidth=2;shape=mxgraph.networks.bus;gradientColor=none;gradientDirection=north;fontColor=default;perimeter=backbonePerimeter;backboneSize=20;fontFamily=Helvetica;fontSize=11;labelBackgroundColor=default;points=[[0,0.5,0,0,0],[0.11,0,0,0,0],[0.11,1,0,0,0],[0.22,0,0,0,0],[0.22,1,0,0,0],[0.33,0,0,0,0],[0.33,1,0,0,0],[0.44,0,0,0,0],[0.44,1,0,0,0],[0.56,0,0,0,0],[0.56,1,0,0,0],[0.67,0,0,0,0],[0.67,1,0,0,0],[0.78,0,0,0,0],[0.78,1,0,0,0],[0.89,0,0,0,0],[0.89,1,0,0,0],[1,0.5,0,0,0]];movable=1;resizable=1;rotatable=1;deletable=1;editable=1;locked=0;connectable=1;html=1;" parent="1" vertex="1">
          <mxGeometry x="1121" y="61" width="240" height="20" as="geometry" />
        </mxCell>
        <mxCell id="LSGmILdVyqXVEuh26CQM-24" value="&lt;span style=&quot;font-size: 16px;&quot;&gt;10.0.1.0-1/31&lt;/span&gt;" style="text;html=1;align=center;verticalAlign=middle;whiteSpace=wrap;rounded=0;" parent="1" vertex="1">
          <mxGeometry x="1141" y="56" width="205" height="30" as="geometry" />
        </mxCell>
        <mxCell id="LSGmILdVyqXVEuh26CQM-28" value="" style="points=[[0.35,0,0],[0.98,0.51,0],[1,0.71,0],[0.67,1,0],[0,0.795,0],[0,0.65,0]];verticalLabelPosition=bottom;sketch=0;html=1;verticalAlign=top;aspect=fixed;align=center;pointerEvents=1;shape=mxgraph.cisco19.user;fillColor=#005073;strokeColor=none;fontFamily=Helvetica;fontSize=11;fontColor=default;labelBackgroundColor=default;" parent="1" vertex="1">
          <mxGeometry x="292.62" y="-249.12" width="100" height="100" as="geometry" />
        </mxCell>
        <mxCell id="LSGmILdVyqXVEuh26CQM-29" value="" style="outlineConnect=0;fillColor=none;strokeColor=#036897;gradientColor=none;gradientDirection=north;strokeWidth=2;shape=mxgraph.networks.bus;gradientColor=none;gradientDirection=north;fontColor=default;perimeter=backbonePerimeter;backboneSize=20;fontFamily=Helvetica;fontSize=11;labelBackgroundColor=default;points=[[0,0.5,0,0,0],[0.11,0,0,0,0],[0.11,1,0,0,0],[0.22,0,0,0,0],[0.22,1,0,0,0],[0.33,0,0,0,0],[0.33,1,0,0,0],[0.44,0,0,0,0],[0.44,1,0,0,0],[0.56,0,0,0,0],[0.56,1,0,0,0],[0.67,0,0,0,0],[0.67,1,0,0,0],[0.78,0,0,0,0],[0.78,1,0,0,0],[0.89,0,0,0,0],[0.89,1,0,0,0],[1,0.5,0,0,0]];movable=1;resizable=1;rotatable=1;deletable=1;editable=1;locked=0;connectable=1;html=1;" parent="1" vertex="1">
          <mxGeometry x="532" y="-215" width="240" height="20" as="geometry" />
        </mxCell>
        <mxCell id="LSGmILdVyqXVEuh26CQM-30" value="&lt;span style=&quot;font-size: 16px;&quot;&gt;VLAN 210 192.168.210.0/24&lt;/span&gt;" style="text;html=1;align=center;verticalAlign=middle;whiteSpace=wrap;rounded=0;" parent="1" vertex="1">
          <mxGeometry x="552" y="-220" width="205" height="30" as="geometry" />
        </mxCell>
        <mxCell id="LSGmILdVyqXVEuh26CQM-31" value="" style="outlineConnect=0;fillColor=none;strokeColor=#036897;gradientColor=none;gradientDirection=north;strokeWidth=2;shape=mxgraph.networks.bus;gradientColor=none;gradientDirection=north;fontColor=default;perimeter=backbonePerimeter;backboneSize=20;fontFamily=Helvetica;fontSize=11;labelBackgroundColor=default;points=[[0,0.5,0,0,0],[0.11,0,0,0,0],[0.11,1,0,0,0],[0.22,0,0,0,0],[0.22,1,0,0,0],[0.33,0,0,0,0],[0.33,1,0,0,0],[0.44,0,0,0,0],[0.44,1,0,0,0],[0.56,0,0,0,0],[0.56,1,0,0,0],[0.67,0,0,0,0],[0.67,1,0,0,0],[0.78,0,0,0,0],[0.78,1,0,0,0],[0.89,0,0,0,0],[0.89,1,0,0,0],[1,0.5,0,0,0]];movable=1;resizable=1;rotatable=1;deletable=1;editable=1;locked=0;connectable=1;html=1;" parent="1" vertex="1">
          <mxGeometry x="534.5" y="61" width="240" height="20" as="geometry" />
        </mxCell>
        <mxCell id="LSGmILdVyqXVEuh26CQM-32" value="&lt;span style=&quot;font-size: 16px;&quot;&gt;VLAN 220 192.168.220.0/24&lt;/span&gt;" style="text;html=1;align=center;verticalAlign=middle;whiteSpace=wrap;rounded=0;" parent="1" vertex="1">
          <mxGeometry x="554.5" y="56" width="205" height="30" as="geometry" />
        </mxCell>
        <mxCell id="LSGmILdVyqXVEuh26CQM-33" value="" style="outlineConnect=0;fillColor=none;strokeColor=#036897;gradientColor=none;gradientDirection=north;strokeWidth=2;shape=mxgraph.networks.bus;gradientColor=none;gradientDirection=north;fontColor=default;perimeter=backbonePerimeter;backboneSize=20;fontFamily=Helvetica;fontSize=11;labelBackgroundColor=default;points=[[0,0.5,0,0,0],[0.11,0,0,0,0],[0.11,1,0,0,0],[0.22,0,0,0,0],[0.22,1,0,0,0],[0.33,0,0,0,0],[0.33,1,0,0,0],[0.44,0,0,0,0],[0.44,1,0,0,0],[0.56,0,0,0,0],[0.56,1,0,0,0],[0.67,0,0,0,0],[0.67,1,0,0,0],[0.78,0,0,0,0],[0.78,1,0,0,0],[0.89,0,0,0,0],[0.89,1,0,0,0],[1,0.5,0,0,0]];movable=1;resizable=1;rotatable=1;deletable=1;editable=1;locked=0;connectable=1;html=1;" parent="1" vertex="1">
          <mxGeometry x="530" y="348" width="240" height="20" as="geometry" />
        </mxCell>
        <mxCell id="LSGmILdVyqXVEuh26CQM-34" value="&lt;span style=&quot;font-size: 16px;&quot;&gt;VLAN 230 192.168.230.0/24&lt;/span&gt;" style="text;html=1;align=center;verticalAlign=middle;whiteSpace=wrap;rounded=0;" parent="1" vertex="1">
          <mxGeometry x="550" y="343" width="205" height="30" as="geometry" />
        </mxCell>
        <mxCell id="LSGmILdVyqXVEuh26CQM-39" value="" style="rounded=1;whiteSpace=wrap;html=1;dashed=1;fillColor=none;points=[[0,0,0,0,0],[0,0.17,0,0,0],[0,0.29,0,0,0],[0,0.43,0,0,0],[0,0.56,0,0,0],[0,0.7,0,0,0],[0,0.83,0,0,0],[0,1,0,0,0],[0.16,0,0,0,0],[0.16,1,0,0,0],[0.28,0,0,0,0],[0.28,1,0,0,0],[0.4,0,0,0,0],[0.4,1,0,0,0],[0.59,0,0,0,0],[0.59,1,0,0,0],[0.7,0,0,0,0],[0.7,1,0,0,0],[0.82,0,0,0,0],[0.82,1,0,0,0],[1,0,0,0,0],[1,0.17,0,0,0],[1,0.29,0,0,0],[1,0.43,0,0,0],[1,0.56,0,0,0],[1,0.7,0,0,0],[1,0.83,0,0,0],[1,1,0,0,0]];" parent="1" vertex="1">
          <mxGeometry x="229.9899999999999" y="-19" width="210" height="210" as="geometry" />
        </mxCell>
        <mxCell id="LSGmILdVyqXVEuh26CQM-40" value="&lt;font style=&quot;font-size: 18px;&quot;&gt;VPC-02&lt;/font&gt;" style="text;html=1;align=center;verticalAlign=middle;whiteSpace=wrap;rounded=0;fontFamily=Helvetica;fontSize=11;fontColor=default;labelBackgroundColor=default;" parent="1" vertex="1">
          <mxGeometry x="275.36" y="141" width="119.25" height="30" as="geometry" />
        </mxCell>
        <mxCell id="LSGmILdVyqXVEuh26CQM-41" value="" style="points=[[0.35,0,0],[0.98,0.51,0],[1,0.71,0],[0.67,1,0],[0,0.795,0],[0,0.65,0]];verticalLabelPosition=bottom;sketch=0;html=1;verticalAlign=top;aspect=fixed;align=center;pointerEvents=1;shape=mxgraph.cisco19.user;fillColor=#005073;strokeColor=none;fontFamily=Helvetica;fontSize=11;fontColor=default;labelBackgroundColor=default;" parent="1" vertex="1">
          <mxGeometry x="294.61" y="27.25" width="100" height="100" as="geometry" />
        </mxCell>
        <mxCell id="LSGmILdVyqXVEuh26CQM-42" value="" style="rounded=1;whiteSpace=wrap;html=1;dashed=1;fillColor=none;points=[[0,0,0,0,0],[0,0.17,0,0,0],[0,0.29,0,0,0],[0,0.43,0,0,0],[0,0.56,0,0,0],[0,0.7,0,0,0],[0,0.83,0,0,0],[0,1,0,0,0],[0.16,0,0,0,0],[0.16,1,0,0,0],[0.28,0,0,0,0],[0.28,1,0,0,0],[0.4,0,0,0,0],[0.4,1,0,0,0],[0.59,0,0,0,0],[0.59,1,0,0,0],[0.7,0,0,0,0],[0.7,1,0,0,0],[0.82,0,0,0,0],[0.82,1,0,0,0],[1,0,0,0,0],[1,0.17,0,0,0],[1,0.29,0,0,0],[1,0.43,0,0,0],[1,0.56,0,0,0],[1,0.7,0,0,0],[1,0.83,0,0,0],[1,1,0,0,0]];" parent="1" vertex="1">
          <mxGeometry x="229.9899999999999" y="240" width="210" height="210" as="geometry" />
        </mxCell>
        <mxCell id="LSGmILdVyqXVEuh26CQM-43" value="&lt;font style=&quot;font-size: 18px;&quot;&gt;VPC-03&lt;/font&gt;" style="text;html=1;align=center;verticalAlign=middle;whiteSpace=wrap;rounded=0;fontFamily=Helvetica;fontSize=11;fontColor=default;labelBackgroundColor=default;" parent="1" vertex="1">
          <mxGeometry x="275.36" y="400" width="119.25" height="30" as="geometry" />
        </mxCell>
        <mxCell id="LSGmILdVyqXVEuh26CQM-44" value="" style="points=[[0.35,0,0],[0.98,0.51,0],[1,0.71,0],[0.67,1,0],[0,0.795,0],[0,0.65,0]];verticalLabelPosition=bottom;sketch=0;html=1;verticalAlign=top;aspect=fixed;align=center;pointerEvents=1;shape=mxgraph.cisco19.user;fillColor=#005073;strokeColor=none;fontFamily=Helvetica;fontSize=11;fontColor=default;labelBackgroundColor=default;" parent="1" vertex="1">
          <mxGeometry x="294.98" y="280.25" width="100" height="100" as="geometry" />
        </mxCell>
        <mxCell id="LSGmILdVyqXVEuh26CQM-49" style="edgeStyle=orthogonalEdgeStyle;shape=connector;rounded=0;orthogonalLoop=1;jettySize=auto;html=1;exitX=1;exitY=0.5;exitDx=0;exitDy=0;exitPerimeter=0;entryX=0;entryY=0.17;entryDx=0;entryDy=0;entryPerimeter=0;strokeColor=default;align=center;verticalAlign=middle;fontFamily=Helvetica;fontSize=11;fontColor=default;labelBackgroundColor=default;endArrow=none;endFill=0;" parent="1" source="LSGmILdVyqXVEuh26CQM-29" target="LSGmILdVyqXVEuh26CQM-6" edge="1">
          <mxGeometry relative="1" as="geometry" />
        </mxCell>
        <mxCell id="LSGmILdVyqXVEuh26CQM-51" style="edgeStyle=orthogonalEdgeStyle;shape=connector;rounded=0;orthogonalLoop=1;jettySize=auto;html=1;exitX=1;exitY=0.5;exitDx=0;exitDy=0;exitPerimeter=0;entryX=0;entryY=0.83;entryDx=0;entryDy=0;entryPerimeter=0;strokeColor=default;align=center;verticalAlign=middle;fontFamily=Helvetica;fontSize=11;fontColor=default;labelBackgroundColor=default;endArrow=none;endFill=0;" parent="1" source="LSGmILdVyqXVEuh26CQM-33" target="LSGmILdVyqXVEuh26CQM-6" edge="1">
          <mxGeometry relative="1" as="geometry" />
        </mxCell>
        <mxCell id="LSGmILdVyqXVEuh26CQM-54" value="" style="outlineConnect=0;fillColor=none;strokeColor=#036897;gradientColor=none;gradientDirection=north;strokeWidth=2;shape=mxgraph.networks.bus;gradientColor=none;gradientDirection=north;fontColor=default;perimeter=backbonePerimeter;backboneSize=20;fontFamily=Helvetica;fontSize=11;labelBackgroundColor=default;points=[[0,0.5,0,0,0],[0.11,0,0,0,0],[0.11,1,0,0,0],[0.22,0,0,0,0],[0.22,1,0,0,0],[0.33,0,0,0,0],[0.33,1,0,0,0],[0.44,0,0,0,0],[0.44,1,0,0,0],[0.56,0,0,0,0],[0.56,1,0,0,0],[0.67,0,0,0,0],[0.67,1,0,0,0],[0.78,0,0,0,0],[0.78,1,0,0,0],[0.89,0,0,0,0],[0.89,1,0,0,0],[1,0.5,0,0,0]];movable=1;resizable=1;rotatable=1;deletable=1;editable=1;locked=0;connectable=1;html=1;" parent="1" vertex="1">
          <mxGeometry x="1712" y="61" width="240" height="20" as="geometry" />
        </mxCell>
        <mxCell id="LSGmILdVyqXVEuh26CQM-55" value="&lt;span style=&quot;font-size: 16px;&quot;&gt;2.58.17.0/30&lt;/span&gt;" style="text;html=1;align=center;verticalAlign=middle;whiteSpace=wrap;rounded=0;" parent="1" vertex="1">
          <mxGeometry x="1732" y="56" width="205" height="30" as="geometry" />
        </mxCell>
        <mxCell id="LSGmILdVyqXVEuh26CQM-58" style="edgeStyle=orthogonalEdgeStyle;shape=connector;rounded=0;orthogonalLoop=1;jettySize=auto;html=1;exitX=1;exitY=0.43;exitDx=0;exitDy=0;exitPerimeter=0;entryX=0;entryY=0.5;entryDx=0;entryDy=0;entryPerimeter=0;strokeColor=default;align=center;verticalAlign=middle;fontFamily=Helvetica;fontSize=11;fontColor=default;labelBackgroundColor=default;endArrow=none;endFill=0;" parent="1" source="LSGmILdVyqXVEuh26CQM-6" target="LSGmILdVyqXVEuh26CQM-23" edge="1">
          <mxGeometry relative="1" as="geometry" />
        </mxCell>
        <mxCell id="LSGmILdVyqXVEuh26CQM-59" style="edgeStyle=orthogonalEdgeStyle;shape=connector;rounded=0;orthogonalLoop=1;jettySize=auto;html=1;exitX=1;exitY=0.5;exitDx=0;exitDy=0;exitPerimeter=0;entryX=0;entryY=0.43;entryDx=0;entryDy=0;entryPerimeter=0;strokeColor=default;align=center;verticalAlign=middle;fontFamily=Helvetica;fontSize=11;fontColor=default;labelBackgroundColor=default;endArrow=none;endFill=0;" parent="1" source="LSGmILdVyqXVEuh26CQM-54" target="LSGmILdVyqXVEuh26CQM-8" edge="1">
          <mxGeometry relative="1" as="geometry" />
        </mxCell>
        <mxCell id="LSGmILdVyqXVEuh26CQM-95" value="" style="rounded=1;whiteSpace=wrap;html=1;dashed=1;fillColor=none;points=[[0,0,0,0,0],[0,0.17,0,0,0],[0,0.29,0,0,0],[0,0.43,0,0,0],[0,0.56,0,0,0],[0,0.7,0,0,0],[0,0.83,0,0,0],[0,1,0,0,0],[0.16,0,0,0,0],[0.16,1,0,0,0],[0.28,0,0,0,0],[0.28,1,0,0,0],[0.4,0,0,0,0],[0.4,1,0,0,0],[0.59,0,0,0,0],[0.59,1,0,0,0],[0.7,0,0,0,0],[0.7,1,0,0,0],[0.82,0,0,0,0],[0.82,1,0,0,0],[1,0,0,0,0],[1,0.17,0,0,0],[1,0.29,0,0,0],[1,0.43,0,0,0],[1,0.56,0,0,0],[1,0.7,0,0,0],[1,0.83,0,0,0],[1,1,0,0,0]];" parent="1" vertex="1">
          <mxGeometry x="3779" y="-295.37" width="210" height="210" as="geometry" />
        </mxCell>
        <mxCell id="LSGmILdVyqXVEuh26CQM-96" value="&lt;font style=&quot;font-size: 18px;&quot;&gt;VPC-01&lt;/font&gt;" style="text;html=1;align=center;verticalAlign=middle;whiteSpace=wrap;rounded=0;fontFamily=Helvetica;fontSize=11;fontColor=default;labelBackgroundColor=default;" parent="1" vertex="1">
          <mxGeometry x="3824.37" y="-135.37" width="119.25" height="30" as="geometry" />
        </mxCell>
        <mxCell id="LSGmILdVyqXVEuh26CQM-97" value="" style="shape=mxgraph.cisco.switches.workgroup_switch;sketch=0;html=1;pointerEvents=1;dashed=0;fillColor=#036897;strokeColor=#ffffff;strokeWidth=2;verticalLabelPosition=bottom;verticalAlign=top;align=center;outlineConnect=0;fontFamily=Helvetica;fontSize=11;fontColor=default;labelBackgroundColor=default;" parent="1" vertex="1">
          <mxGeometry x="3179.75" y="47" width="130.5" height="62" as="geometry" />
        </mxCell>
        <mxCell id="LSGmILdVyqXVEuh26CQM-98" value="" style="rounded=1;whiteSpace=wrap;html=1;dashed=1;fillColor=none;points=[[0,0,0,0,0],[0,0.17,0,0,0],[0,0.29,0,0,0],[0,0.43,0,0,0],[0,0.56,0,0,0],[0,0.7,0,0,0],[0,0.83,0,0,0],[0,1,0,0,0],[0.16,0,0,0,0],[0.16,1,0,0,0],[0.28,0,0,0,0],[0.28,1,0,0,0],[0.4,0,0,0,0],[0.4,1,0,0,0],[0.59,0,0,0,0],[0.59,1,0,0,0],[0.7,0,0,0,0],[0.7,1,0,0,0],[0.82,0,0,0,0],[0.82,1,0,0,0],[1,0,0,0,0],[1,0.17,0,0,0],[1,0.29,0,0,0],[1,0.43,0,0,0],[1,0.56,0,0,0],[1,0.7,0,0,0],[1,0.83,0,0,0],[1,1,0,0,0]];" parent="1" vertex="1">
          <mxGeometry x="3140" y="-18.999999999999996" width="210" height="210" as="geometry" />
        </mxCell>
        <mxCell id="LSGmILdVyqXVEuh26CQM-99" value="&lt;font style=&quot;font-size: 18px;&quot;&gt;Agg-SW01-BR02&lt;/font&gt;&lt;div&gt;&lt;font style=&quot;font-size: 18px;&quot;&gt;lo0: 3.3.3.10/32&lt;/font&gt;&lt;/div&gt;" style="text;html=1;align=center;verticalAlign=middle;whiteSpace=wrap;rounded=0;fontFamily=Helvetica;fontSize=11;fontColor=default;labelBackgroundColor=default;" parent="1" vertex="1">
          <mxGeometry x="3170.94" y="141" width="148.12" height="30" as="geometry" />
        </mxCell>
        <mxCell id="LSGmILdVyqXVEuh26CQM-100" value="" style="rounded=1;whiteSpace=wrap;html=1;dashed=1;fillColor=none;points=[[0,0,0,0,0],[0,0.17,0,0,0],[0,0.29,0,0,0],[0,0.43,0,0,0],[0,0.56,0,0,0],[0,0.7,0,0,0],[0,0.83,0,0,0],[0,1,0,0,0],[0.16,0,0,0,0],[0.16,1,0,0,0],[0.28,0,0,0,0],[0.28,1,0,0,0],[0.4,0,0,0,0],[0.4,1,0,0,0],[0.59,0,0,0,0],[0.59,1,0,0,0],[0.7,0,0,0,0],[0.7,1,0,0,0],[0.82,0,0,0,0],[0.82,1,0,0,0],[1,0,0,0,0],[1,0.17,0,0,0],[1,0.29,0,0,0],[1,0.43,0,0,0],[1,0.56,0,0,0],[1,0.7,0,0,0],[1,0.83,0,0,0],[1,1,0,0,0]];container=0;movable=1;resizable=1;rotatable=1;deletable=1;editable=1;locked=0;connectable=1;" parent="1" vertex="1">
          <mxGeometry x="2560" y="-19" width="210" height="210" as="geometry" />
        </mxCell>
        <mxCell id="LSGmILdVyqXVEuh26CQM-101" value="" style="shape=mxgraph.cisco.routers.router;sketch=0;html=1;pointerEvents=1;dashed=0;fillColor=#036897;strokeColor=#ffffff;strokeWidth=2;verticalLabelPosition=bottom;verticalAlign=top;align=center;outlineConnect=0;fontFamily=Helvetica;fontSize=11;fontColor=default;labelBackgroundColor=default;" parent="1" vertex="1">
          <mxGeometry x="2614.37" y="41" width="101.25" height="62" as="geometry" />
        </mxCell>
        <mxCell id="LSGmILdVyqXVEuh26CQM-102" value="&lt;font style=&quot;font-size: 18px;&quot;&gt;Border01-BR02&lt;/font&gt;&lt;div&gt;&lt;font style=&quot;font-size: 18px;&quot;&gt;lo0: 3.3.3.3/32&lt;/font&gt;&lt;/div&gt;&lt;div&gt;&lt;font style=&quot;font-size: 18px;&quot;&gt;tun1: 172.16.20.2/30&lt;/font&gt;&lt;/div&gt;" style="text;html=1;align=center;verticalAlign=middle;whiteSpace=wrap;rounded=0;fontFamily=Helvetica;fontSize=11;fontColor=default;labelBackgroundColor=default;" parent="1" vertex="1">
          <mxGeometry x="2576.34" y="141" width="177.31" height="30" as="geometry" />
        </mxCell>
        <mxCell id="LSGmILdVyqXVEuh26CQM-106" value="" style="points=[[0.35,0,0],[0.98,0.51,0],[1,0.71,0],[0.67,1,0],[0,0.795,0],[0,0.65,0]];verticalLabelPosition=bottom;sketch=0;html=1;verticalAlign=top;aspect=fixed;align=center;pointerEvents=1;shape=mxgraph.cisco19.user;fillColor=#005073;strokeColor=none;fontFamily=Helvetica;fontSize=11;fontColor=default;labelBackgroundColor=default;" parent="1" vertex="1">
          <mxGeometry x="3843.62" y="-249.12" width="100" height="100" as="geometry" />
        </mxCell>
        <mxCell id="LSGmILdVyqXVEuh26CQM-107" value="" style="outlineConnect=0;fillColor=none;strokeColor=#036897;gradientColor=none;gradientDirection=north;strokeWidth=2;shape=mxgraph.networks.bus;gradientColor=none;gradientDirection=north;fontColor=default;perimeter=backbonePerimeter;backboneSize=20;fontFamily=Helvetica;fontSize=11;labelBackgroundColor=default;points=[[0,0.5,0,0,0],[0.11,0,0,0,0],[0.11,1,0,0,0],[0.22,0,0,0,0],[0.22,1,0,0,0],[0.33,0,0,0,0],[0.33,1,0,0,0],[0.44,0,0,0,0],[0.44,1,0,0,0],[0.56,0,0,0,0],[0.56,1,0,0,0],[0.67,0,0,0,0],[0.67,1,0,0,0],[0.78,0,0,0,0],[0.78,1,0,0,0],[0.89,0,0,0,0],[0.89,1,0,0,0],[1,0.5,0,0,0]];movable=1;resizable=1;rotatable=1;deletable=1;editable=1;locked=0;connectable=1;html=1;" parent="1" vertex="1">
          <mxGeometry x="3452" y="-214.37" width="240" height="20" as="geometry" />
        </mxCell>
        <mxCell id="LSGmILdVyqXVEuh26CQM-108" value="&lt;span style=&quot;font-size: 16px;&quot;&gt;VLAN 10 192.168.10.0/24&lt;/span&gt;" style="text;html=1;align=center;verticalAlign=middle;whiteSpace=wrap;rounded=0;" parent="1" vertex="1">
          <mxGeometry x="3472" y="-219.37" width="205" height="30" as="geometry" />
        </mxCell>
        <mxCell id="LSGmILdVyqXVEuh26CQM-111" value="" style="outlineConnect=0;fillColor=none;strokeColor=#036897;gradientColor=none;gradientDirection=north;strokeWidth=2;shape=mxgraph.networks.bus;gradientColor=none;gradientDirection=north;fontColor=default;perimeter=backbonePerimeter;backboneSize=20;fontFamily=Helvetica;fontSize=11;labelBackgroundColor=default;points=[[0,0.5,0,0,0],[0.11,0,0,0,0],[0.11,1,0,0,0],[0.22,0,0,0,0],[0.22,1,0,0,0],[0.33,0,0,0,0],[0.33,1,0,0,0],[0.44,0,0,0,0],[0.44,1,0,0,0],[0.56,0,0,0,0],[0.56,1,0,0,0],[0.67,0,0,0,0],[0.67,1,0,0,0],[0.78,0,0,0,0],[0.78,1,0,0,0],[0.89,0,0,0,0],[0.89,1,0,0,0],[1,0.5,0,0,0]];movable=1;resizable=1;rotatable=1;deletable=1;editable=1;locked=0;connectable=1;html=1;" parent="1" vertex="1">
          <mxGeometry x="3450" y="347.63" width="240" height="20" as="geometry" />
        </mxCell>
        <mxCell id="LSGmILdVyqXVEuh26CQM-112" value="&lt;span style=&quot;font-size: 16px;&quot;&gt;VLAN 20 192.168.20.0/24&lt;/span&gt;" style="text;html=1;align=center;verticalAlign=middle;whiteSpace=wrap;rounded=0;" parent="1" vertex="1">
          <mxGeometry x="3470" y="342.63" width="205" height="30" as="geometry" />
        </mxCell>
        <mxCell id="LSGmILdVyqXVEuh26CQM-116" value="" style="rounded=1;whiteSpace=wrap;html=1;dashed=1;fillColor=none;points=[[0,0,0,0,0],[0,0.17,0,0,0],[0,0.29,0,0,0],[0,0.43,0,0,0],[0,0.56,0,0,0],[0,0.7,0,0,0],[0,0.83,0,0,0],[0,1,0,0,0],[0.16,0,0,0,0],[0.16,1,0,0,0],[0.28,0,0,0,0],[0.28,1,0,0,0],[0.4,0,0,0,0],[0.4,1,0,0,0],[0.59,0,0,0,0],[0.59,1,0,0,0],[0.7,0,0,0,0],[0.7,1,0,0,0],[0.82,0,0,0,0],[0.82,1,0,0,0],[1,0,0,0,0],[1,0.17,0,0,0],[1,0.29,0,0,0],[1,0.43,0,0,0],[1,0.56,0,0,0],[1,0.7,0,0,0],[1,0.83,0,0,0],[1,1,0,0,0]];" parent="1" vertex="1">
          <mxGeometry x="3780" y="240" width="210" height="210" as="geometry" />
        </mxCell>
        <mxCell id="LSGmILdVyqXVEuh26CQM-117" value="&lt;font style=&quot;font-size: 18px;&quot;&gt;VPC-02&lt;/font&gt;" style="text;html=1;align=center;verticalAlign=middle;whiteSpace=wrap;rounded=0;fontFamily=Helvetica;fontSize=11;fontColor=default;labelBackgroundColor=default;" parent="1" vertex="1">
          <mxGeometry x="3825.37" y="400" width="119.25" height="30" as="geometry" />
        </mxCell>
        <mxCell id="LSGmILdVyqXVEuh26CQM-118" value="" style="points=[[0.35,0,0],[0.98,0.51,0],[1,0.71,0],[0.67,1,0],[0,0.795,0],[0,0.65,0]];verticalLabelPosition=bottom;sketch=0;html=1;verticalAlign=top;aspect=fixed;align=center;pointerEvents=1;shape=mxgraph.cisco19.user;fillColor=#005073;strokeColor=none;fontFamily=Helvetica;fontSize=11;fontColor=default;labelBackgroundColor=default;" parent="1" vertex="1">
          <mxGeometry x="3844.62" y="286.25" width="100" height="100" as="geometry" />
        </mxCell>
        <mxCell id="LSGmILdVyqXVEuh26CQM-132" value="" style="outlineConnect=0;fillColor=none;strokeColor=#036897;gradientColor=none;gradientDirection=north;strokeWidth=2;shape=mxgraph.networks.bus;gradientColor=none;gradientDirection=north;fontColor=default;perimeter=backbonePerimeter;backboneSize=20;fontFamily=Helvetica;fontSize=11;labelBackgroundColor=default;points=[[0,0.5,0,0,0],[0.11,0,0,0,0],[0.11,1,0,0,0],[0.22,0,0,0,0],[0.22,1,0,0,0],[0.33,0,0,0,0],[0.33,1,0,0,0],[0.44,0,0,0,0],[0.44,1,0,0,0],[0.56,0,0,0,0],[0.56,1,0,0,0],[0.67,0,0,0,0],[0.67,1,0,0,0],[0.78,0,0,0,0],[0.78,1,0,0,0],[0.89,0,0,0,0],[0.89,1,0,0,0],[1,0.5,0,0,0]];movable=1;resizable=1;rotatable=1;deletable=1;editable=1;locked=0;connectable=1;html=1;" parent="1" vertex="1">
          <mxGeometry x="2250" y="61" width="240" height="20" as="geometry" />
        </mxCell>
        <mxCell id="LSGmILdVyqXVEuh26CQM-133" value="&lt;span style=&quot;font-size: 16px;&quot;&gt;195.147.98.0/30&lt;/span&gt;" style="text;html=1;align=center;verticalAlign=middle;whiteSpace=wrap;rounded=0;" parent="1" vertex="1">
          <mxGeometry x="2270" y="56" width="205" height="30" as="geometry" />
        </mxCell>
        <mxCell id="LSGmILdVyqXVEuh26CQM-134" style="edgeStyle=orthogonalEdgeStyle;shape=connector;rounded=0;orthogonalLoop=1;jettySize=auto;html=1;exitX=1;exitY=0.43;exitDx=0;exitDy=0;exitPerimeter=0;entryX=0;entryY=0.5;entryDx=0;entryDy=0;entryPerimeter=0;strokeColor=default;align=center;verticalAlign=middle;fontFamily=Helvetica;fontSize=11;fontColor=default;labelBackgroundColor=default;endArrow=none;endFill=0;" parent="1" source="LSGmILdVyqXVEuh26CQM-8" target="LSGmILdVyqXVEuh26CQM-132" edge="1">
          <mxGeometry relative="1" as="geometry" />
        </mxCell>
        <mxCell id="LSGmILdVyqXVEuh26CQM-136" value="" style="outlineConnect=0;fillColor=none;strokeColor=#036897;gradientColor=none;gradientDirection=north;strokeWidth=2;shape=mxgraph.networks.bus;gradientColor=none;gradientDirection=north;fontColor=default;perimeter=backbonePerimeter;backboneSize=20;fontFamily=Helvetica;fontSize=11;labelBackgroundColor=default;points=[[0,0.5,0,0,0],[0.11,0,0,0,0],[0.11,1,0,0,0],[0.22,0,0,0,0],[0.22,1,0,0,0],[0.33,0,0,0,0],[0.33,1,0,0,0],[0.44,0,0,0,0],[0.44,1,0,0,0],[0.56,0,0,0,0],[0.56,1,0,0,0],[0.67,0,0,0,0],[0.67,1,0,0,0],[0.78,0,0,0,0],[0.78,1,0,0,0],[0.89,0,0,0,0],[0.89,1,0,0,0],[1,0.5,0,0,0]];movable=1;resizable=1;rotatable=1;deletable=1;editable=1;locked=0;connectable=1;html=1;" parent="1" vertex="1">
          <mxGeometry x="2840" y="31" width="240" height="20" as="geometry" />
        </mxCell>
        <mxCell id="LSGmILdVyqXVEuh26CQM-137" value="&lt;span style=&quot;font-size: 16px;&quot;&gt;10.0.2.0-1/31&lt;/span&gt;" style="text;html=1;align=center;verticalAlign=middle;whiteSpace=wrap;rounded=0;" parent="1" vertex="1">
          <mxGeometry x="2860" y="26" width="205" height="30" as="geometry" />
        </mxCell>
        <mxCell id="LSGmILdVyqXVEuh26CQM-138" style="edgeStyle=orthogonalEdgeStyle;shape=connector;rounded=0;orthogonalLoop=1;jettySize=auto;html=1;exitX=1;exitY=0.5;exitDx=0;exitDy=0;exitPerimeter=0;entryX=0;entryY=0.43;entryDx=0;entryDy=0;entryPerimeter=0;strokeColor=default;align=center;verticalAlign=middle;fontFamily=Helvetica;fontSize=11;fontColor=default;labelBackgroundColor=default;endArrow=none;endFill=0;" parent="1" source="LSGmILdVyqXVEuh26CQM-107" target="LSGmILdVyqXVEuh26CQM-95" edge="1">
          <mxGeometry relative="1" as="geometry" />
        </mxCell>
        <mxCell id="LSGmILdVyqXVEuh26CQM-140" style="edgeStyle=orthogonalEdgeStyle;shape=connector;rounded=0;orthogonalLoop=1;jettySize=auto;html=1;exitX=1;exitY=0.5;exitDx=0;exitDy=0;exitPerimeter=0;entryX=0;entryY=0.56;entryDx=0;entryDy=0;entryPerimeter=0;strokeColor=default;align=center;verticalAlign=middle;fontFamily=Helvetica;fontSize=11;fontColor=default;labelBackgroundColor=default;endArrow=none;endFill=0;" parent="1" source="LSGmILdVyqXVEuh26CQM-111" target="LSGmILdVyqXVEuh26CQM-116" edge="1">
          <mxGeometry relative="1" as="geometry" />
        </mxCell>
        <mxCell id="LSGmILdVyqXVEuh26CQM-141" style="edgeStyle=orthogonalEdgeStyle;shape=connector;rounded=0;orthogonalLoop=1;jettySize=auto;html=1;exitX=1;exitY=0.17;exitDx=0;exitDy=0;exitPerimeter=0;entryX=0;entryY=0.5;entryDx=0;entryDy=0;entryPerimeter=0;strokeColor=default;align=center;verticalAlign=middle;fontFamily=Helvetica;fontSize=11;fontColor=default;labelBackgroundColor=default;endArrow=none;endFill=0;" parent="1" source="LSGmILdVyqXVEuh26CQM-98" target="LSGmILdVyqXVEuh26CQM-107" edge="1">
          <mxGeometry relative="1" as="geometry" />
        </mxCell>
        <mxCell id="LSGmILdVyqXVEuh26CQM-143" style="edgeStyle=orthogonalEdgeStyle;shape=connector;rounded=0;orthogonalLoop=1;jettySize=auto;html=1;exitX=1;exitY=0.83;exitDx=0;exitDy=0;exitPerimeter=0;entryX=0;entryY=0.5;entryDx=0;entryDy=0;entryPerimeter=0;strokeColor=default;align=center;verticalAlign=middle;fontFamily=Helvetica;fontSize=11;fontColor=default;labelBackgroundColor=default;endArrow=none;endFill=0;" parent="1" source="LSGmILdVyqXVEuh26CQM-98" target="LSGmILdVyqXVEuh26CQM-111" edge="1">
          <mxGeometry relative="1" as="geometry" />
        </mxCell>
        <mxCell id="LSGmILdVyqXVEuh26CQM-148" style="edgeStyle=orthogonalEdgeStyle;shape=connector;rounded=0;orthogonalLoop=1;jettySize=auto;html=1;exitX=1;exitY=0.5;exitDx=0;exitDy=0;exitPerimeter=0;entryX=0;entryY=0.43;entryDx=0;entryDy=0;entryPerimeter=0;strokeColor=default;align=center;verticalAlign=middle;fontFamily=Helvetica;fontSize=11;fontColor=default;labelBackgroundColor=default;endArrow=none;endFill=0;" parent="1" source="LSGmILdVyqXVEuh26CQM-132" target="LSGmILdVyqXVEuh26CQM-100" edge="1">
          <mxGeometry relative="1" as="geometry" />
        </mxCell>
        <mxCell id="LSGmILdVyqXVEuh26CQM-155" style="edgeStyle=orthogonalEdgeStyle;shape=connector;rounded=0;orthogonalLoop=1;jettySize=auto;html=1;exitX=1;exitY=0.43;exitDx=0;exitDy=0;exitPerimeter=0;entryX=0;entryY=0.5;entryDx=0;entryDy=0;entryPerimeter=0;strokeColor=default;align=center;verticalAlign=middle;fontFamily=Helvetica;fontSize=11;fontColor=default;labelBackgroundColor=default;endArrow=none;endFill=0;" parent="1" source="8wOTZfcab9I5ijcCHoGj-39" target="LSGmILdVyqXVEuh26CQM-29" edge="1">
          <mxGeometry relative="1" as="geometry" />
        </mxCell>
        <mxCell id="LSGmILdVyqXVEuh26CQM-158" style="edgeStyle=orthogonalEdgeStyle;shape=connector;rounded=0;orthogonalLoop=1;jettySize=auto;html=1;exitX=0;exitY=0.43;exitDx=0;exitDy=0;exitPerimeter=0;entryX=1;entryY=0.5;entryDx=0;entryDy=0;entryPerimeter=0;strokeColor=default;align=center;verticalAlign=middle;fontFamily=Helvetica;fontSize=11;fontColor=default;labelBackgroundColor=default;endArrow=none;endFill=0;" parent="1" source="LSGmILdVyqXVEuh26CQM-6" target="LSGmILdVyqXVEuh26CQM-31" edge="1">
          <mxGeometry relative="1" as="geometry" />
        </mxCell>
        <mxCell id="LSGmILdVyqXVEuh26CQM-159" style="edgeStyle=orthogonalEdgeStyle;shape=connector;rounded=0;orthogonalLoop=1;jettySize=auto;html=1;exitX=0;exitY=0.5;exitDx=0;exitDy=0;exitPerimeter=0;entryX=1;entryY=0.43;entryDx=0;entryDy=0;entryPerimeter=0;strokeColor=default;align=center;verticalAlign=middle;fontFamily=Helvetica;fontSize=11;fontColor=default;labelBackgroundColor=default;endArrow=none;endFill=0;" parent="1" source="LSGmILdVyqXVEuh26CQM-31" target="LSGmILdVyqXVEuh26CQM-39" edge="1">
          <mxGeometry relative="1" as="geometry" />
        </mxCell>
        <mxCell id="LSGmILdVyqXVEuh26CQM-160" style="edgeStyle=orthogonalEdgeStyle;shape=connector;rounded=0;orthogonalLoop=1;jettySize=auto;html=1;exitX=1;exitY=0.56;exitDx=0;exitDy=0;exitPerimeter=0;entryX=0;entryY=0.5;entryDx=0;entryDy=0;entryPerimeter=0;strokeColor=default;align=center;verticalAlign=middle;fontFamily=Helvetica;fontSize=11;fontColor=default;labelBackgroundColor=default;endArrow=none;endFill=0;" parent="1" source="LSGmILdVyqXVEuh26CQM-42" target="LSGmILdVyqXVEuh26CQM-33" edge="1">
          <mxGeometry relative="1" as="geometry" />
        </mxCell>
        <mxCell id="LSGmILdVyqXVEuh26CQM-161" value="" style="rounded=1;whiteSpace=wrap;html=1;fontFamily=Helvetica;fontSize=11;fontColor=default;labelBackgroundColor=default;fillColor=none;dashed=1;movable=1;resizable=1;rotatable=1;deletable=1;editable=1;locked=0;connectable=1;" parent="1" vertex="1">
          <mxGeometry x="134" y="710" width="1530" height="870" as="geometry" />
        </mxCell>
        <mxCell id="LSGmILdVyqXVEuh26CQM-162" value="" style="rounded=1;whiteSpace=wrap;html=1;dashed=1;fillColor=none;points=[[0,0,0,0,0],[0,0.17,0,0,0],[0,0.29,0,0,0],[0,0.43,0,0,0],[0,0.56,0,0,0],[0,0.7,0,0,0],[0,0.83,0,0,0],[0,1,0,0,0],[0.16,0,0,0,0],[0.16,1,0,0,0],[0.28,0,0,0,0],[0.28,1,0,0,0],[0.4,0,0,0,0],[0.4,1,0,0,0],[0.59,0,0,0,0],[0.59,1,0,0,0],[0.7,0,0,0,0],[0.7,1,0,0,0],[0.82,0,0,0,0],[0.82,1,0,0,0],[1,0,0,0,0],[1,0.17,0,0,0],[1,0.29,0,0,0],[1,0.43,0,0,0],[1,0.56,0,0,0],[1,0.7,0,0,0],[1,0.83,0,0,0],[1,1,0,0,0]];" parent="1" vertex="1">
          <mxGeometry x="227.9999999999999" y="774.63" width="210" height="210" as="geometry" />
        </mxCell>
        <mxCell id="LSGmILdVyqXVEuh26CQM-163" value="&lt;font style=&quot;font-size: 18px;&quot;&gt;VPC-01&lt;/font&gt;" style="text;html=1;align=center;verticalAlign=middle;whiteSpace=wrap;rounded=0;fontFamily=Helvetica;fontSize=11;fontColor=default;labelBackgroundColor=default;" parent="1" vertex="1">
          <mxGeometry x="273.37" y="934.63" width="119.25" height="30" as="geometry" />
        </mxCell>
        <mxCell id="LSGmILdVyqXVEuh26CQM-164" value="" style="shape=mxgraph.cisco.switches.workgroup_switch;sketch=0;html=1;pointerEvents=1;dashed=0;fillColor=#036897;strokeColor=#ffffff;strokeWidth=2;verticalLabelPosition=bottom;verticalAlign=top;align=center;outlineConnect=0;fontFamily=Helvetica;fontSize=11;fontColor=default;labelBackgroundColor=default;" parent="1" vertex="1">
          <mxGeometry x="919.75" y="1116" width="130.5" height="62" as="geometry" />
        </mxCell>
        <mxCell id="LSGmILdVyqXVEuh26CQM-165" value="" style="rounded=1;whiteSpace=wrap;html=1;dashed=1;fillColor=none;points=[[0,0,0,0,0],[0,0.17,0,0,0],[0,0.29,0,0,0],[0,0.43,0,0,0],[0,0.56,0,0,0],[0,0.7,0,0,0],[0,0.83,0,0,0],[0,1,0,0,0],[0.16,0,0,0,0],[0.16,1,0,0,0],[0.28,0,0,0,0],[0.28,1,0,0,0],[0.4,0,0,0,0],[0.4,1,0,0,0],[0.59,0,0,0,0],[0.59,1,0,0,0],[0.7,0,0,0,0],[0.7,1,0,0,0],[0.82,0,0,0,0],[0.82,1,0,0,0],[1,0,0,0,0],[1,0.17,0,0,0],[1,0.29,0,0,0],[1,0.43,0,0,0],[1,0.56,0,0,0],[1,0.7,0,0,0],[1,0.83,0,0,0],[1,1,0,0,0]];" parent="1" vertex="1">
          <mxGeometry x="880" y="1050" width="210" height="210" as="geometry" />
        </mxCell>
        <mxCell id="LSGmILdVyqXVEuh26CQM-166" value="&lt;font style=&quot;font-size: 18px;&quot;&gt;Agg-SW01-HQ01&lt;/font&gt;&lt;div&gt;&lt;font style=&quot;font-size: 18px;&quot;&gt;lo0: 1.1.1.10/32&lt;/font&gt;&lt;/div&gt;" style="text;html=1;align=center;verticalAlign=middle;whiteSpace=wrap;rounded=0;fontFamily=Helvetica;fontSize=11;fontColor=default;labelBackgroundColor=default;" parent="1" vertex="1">
          <mxGeometry x="909.4399999999999" y="1211" width="148.12" height="30" as="geometry" />
        </mxCell>
        <mxCell id="LSGmILdVyqXVEuh26CQM-167" value="" style="rounded=1;whiteSpace=wrap;html=1;dashed=1;fillColor=none;points=[[0,0,0,0,0],[0,0.17,0,0,0],[0,0.29,0,0,0],[0,0.43,0,0,0],[0,0.56,0,0,0],[0,0.7,0,0,0],[0,0.83,0,0,0],[0,1,0,0,0],[0.16,0,0,0,0],[0.16,1,0,0,0],[0.28,0,0,0,0],[0.28,1,0,0,0],[0.4,0,0,0,0],[0.4,1,0,0,0],[0.59,0,0,0,0],[0.59,1,0,0,0],[0.7,0,0,0,0],[0.7,1,0,0,0],[0.82,0,0,0,0],[0.82,1,0,0,0],[1,0,0,0,0],[1,0.17,0,0,0],[1,0.29,0,0,0],[1,0.43,0,0,0],[1,0.56,0,0,0],[1,0.7,0,0,0],[1,0.83,0,0,0],[1,1,0,0,0]];container=0;movable=1;resizable=1;rotatable=1;deletable=1;editable=1;locked=0;connectable=1;" parent="1" vertex="1">
          <mxGeometry x="1400" y="1051" width="210" height="210" as="geometry" />
        </mxCell>
        <mxCell id="LSGmILdVyqXVEuh26CQM-168" value="" style="shape=mxgraph.cisco.routers.router;sketch=0;html=1;pointerEvents=1;dashed=0;fillColor=#036897;strokeColor=#ffffff;strokeWidth=2;verticalLabelPosition=bottom;verticalAlign=top;align=center;outlineConnect=0;fontFamily=Helvetica;fontSize=11;fontColor=default;labelBackgroundColor=default;" parent="1" vertex="1">
          <mxGeometry x="1454.37" y="1083" width="101.25" height="62" as="geometry" />
        </mxCell>
        <mxCell id="LSGmILdVyqXVEuh26CQM-169" value="&lt;font style=&quot;font-size: 18px;&quot;&gt;Border01-HQ01&lt;/font&gt;&lt;div&gt;&lt;font style=&quot;font-size: 18px;&quot;&gt;lo0: 1.1.1.1/32&lt;/font&gt;&lt;/div&gt;&lt;div&gt;&lt;span style=&quot;font-size: 18px;&quot;&gt;tun1: 172.16.10.1/30&lt;/span&gt;&lt;/div&gt;&lt;div&gt;&lt;span style=&quot;font-size: 18px;&quot;&gt;tun2: 172.16.20.1/30&lt;/span&gt;&lt;/div&gt;" style="text;html=1;align=center;verticalAlign=middle;whiteSpace=wrap;rounded=0;fontFamily=Helvetica;fontSize=11;fontColor=default;labelBackgroundColor=default;" parent="1" vertex="1">
          <mxGeometry x="1413.84" y="1197.25" width="182.32" height="30" as="geometry" />
        </mxCell>
        <mxCell id="LSGmILdVyqXVEuh26CQM-170" value="" style="outlineConnect=0;fillColor=none;strokeColor=#036897;gradientColor=none;gradientDirection=north;strokeWidth=2;shape=mxgraph.networks.bus;gradientColor=none;gradientDirection=north;fontColor=default;perimeter=backbonePerimeter;backboneSize=20;fontFamily=Helvetica;fontSize=11;labelBackgroundColor=default;points=[[0,0.5,0,0,0],[0.11,0,0,0,0],[0.11,1,0,0,0],[0.22,0,0,0,0],[0.22,1,0,0,0],[0.33,0,0,0,0],[0.33,1,0,0,0],[0.44,0,0,0,0],[0.44,1,0,0,0],[0.56,0,0,0,0],[0.56,1,0,0,0],[0.67,0,0,0,0],[0.67,1,0,0,0],[0.78,0,0,0,0],[0.78,1,0,0,0],[0.89,0,0,0,0],[0.89,1,0,0,0],[1,0.5,0,0,0]];movable=1;resizable=1;rotatable=1;deletable=1;editable=1;locked=0;connectable=1;html=1;" parent="1" vertex="1">
          <mxGeometry x="1121" y="1131" width="240" height="20" as="geometry" />
        </mxCell>
        <mxCell id="LSGmILdVyqXVEuh26CQM-171" value="&lt;span style=&quot;font-size: 16px;&quot;&gt;10.0.0.0-1/31&lt;/span&gt;" style="text;html=1;align=center;verticalAlign=middle;whiteSpace=wrap;rounded=0;" parent="1" vertex="1">
          <mxGeometry x="1141" y="1126" width="205" height="30" as="geometry" />
        </mxCell>
        <mxCell id="LSGmILdVyqXVEuh26CQM-172" value="" style="points=[[0.35,0,0],[0.98,0.51,0],[1,0.71,0],[0.67,1,0],[0,0.795,0],[0,0.65,0]];verticalLabelPosition=bottom;sketch=0;html=1;verticalAlign=top;aspect=fixed;align=center;pointerEvents=1;shape=mxgraph.cisco19.user;fillColor=#005073;strokeColor=none;fontFamily=Helvetica;fontSize=11;fontColor=default;labelBackgroundColor=default;" parent="1" vertex="1">
          <mxGeometry x="292.62" y="820.88" width="100" height="100" as="geometry" />
        </mxCell>
        <mxCell id="LSGmILdVyqXVEuh26CQM-173" value="" style="outlineConnect=0;fillColor=none;strokeColor=#036897;gradientColor=none;gradientDirection=north;strokeWidth=2;shape=mxgraph.networks.bus;gradientColor=none;gradientDirection=north;fontColor=default;perimeter=backbonePerimeter;backboneSize=20;fontFamily=Helvetica;fontSize=11;labelBackgroundColor=default;points=[[0,0.5,0,0,0],[0.11,0,0,0,0],[0.11,1,0,0,0],[0.22,0,0,0,0],[0.22,1,0,0,0],[0.33,0,0,0,0],[0.33,1,0,0,0],[0.44,0,0,0,0],[0.44,1,0,0,0],[0.56,0,0,0,0],[0.56,1,0,0,0],[0.67,0,0,0,0],[0.67,1,0,0,0],[0.78,0,0,0,0],[0.78,1,0,0,0],[0.89,0,0,0,0],[0.89,1,0,0,0],[1,0.5,0,0,0]];movable=1;resizable=1;rotatable=1;deletable=1;editable=1;locked=0;connectable=1;html=1;" parent="1" vertex="1">
          <mxGeometry x="532" y="855" width="240" height="20" as="geometry" />
        </mxCell>
        <mxCell id="LSGmILdVyqXVEuh26CQM-174" value="&lt;span style=&quot;font-size: 16px;&quot;&gt;VLAN 110 192.168.110.0/24&lt;/span&gt;" style="text;html=1;align=center;verticalAlign=middle;whiteSpace=wrap;rounded=0;" parent="1" vertex="1">
          <mxGeometry x="552" y="850" width="205" height="30" as="geometry" />
        </mxCell>
        <mxCell id="LSGmILdVyqXVEuh26CQM-175" value="" style="outlineConnect=0;fillColor=none;strokeColor=#036897;gradientColor=none;gradientDirection=north;strokeWidth=2;shape=mxgraph.networks.bus;gradientColor=none;gradientDirection=north;fontColor=default;perimeter=backbonePerimeter;backboneSize=20;fontFamily=Helvetica;fontSize=11;labelBackgroundColor=default;points=[[0,0.5,0,0,0],[0.11,0,0,0,0],[0.11,1,0,0,0],[0.22,0,0,0,0],[0.22,1,0,0,0],[0.33,0,0,0,0],[0.33,1,0,0,0],[0.44,0,0,0,0],[0.44,1,0,0,0],[0.56,0,0,0,0],[0.56,1,0,0,0],[0.67,0,0,0,0],[0.67,1,0,0,0],[0.78,0,0,0,0],[0.78,1,0,0,0],[0.89,0,0,0,0],[0.89,1,0,0,0],[1,0.5,0,0,0]];movable=1;resizable=1;rotatable=1;deletable=1;editable=1;locked=0;connectable=1;html=1;" parent="1" vertex="1">
          <mxGeometry x="534.5" y="1131" width="240" height="20" as="geometry" />
        </mxCell>
        <mxCell id="LSGmILdVyqXVEuh26CQM-176" value="&lt;span style=&quot;font-size: 16px;&quot;&gt;VLAN 120 192.168.120.0/24&lt;/span&gt;" style="text;html=1;align=center;verticalAlign=middle;whiteSpace=wrap;rounded=0;" parent="1" vertex="1">
          <mxGeometry x="554.5" y="1126" width="205" height="30" as="geometry" />
        </mxCell>
        <mxCell id="LSGmILdVyqXVEuh26CQM-177" value="" style="outlineConnect=0;fillColor=none;strokeColor=#036897;gradientColor=none;gradientDirection=north;strokeWidth=2;shape=mxgraph.networks.bus;gradientColor=none;gradientDirection=north;fontColor=default;perimeter=backbonePerimeter;backboneSize=20;fontFamily=Helvetica;fontSize=11;labelBackgroundColor=default;points=[[0,0.5,0,0,0],[0.11,0,0,0,0],[0.11,1,0,0,0],[0.22,0,0,0,0],[0.22,1,0,0,0],[0.33,0,0,0,0],[0.33,1,0,0,0],[0.44,0,0,0,0],[0.44,1,0,0,0],[0.56,0,0,0,0],[0.56,1,0,0,0],[0.67,0,0,0,0],[0.67,1,0,0,0],[0.78,0,0,0,0],[0.78,1,0,0,0],[0.89,0,0,0,0],[0.89,1,0,0,0],[1,0.5,0,0,0]];movable=1;resizable=1;rotatable=1;deletable=1;editable=1;locked=0;connectable=1;html=1;" parent="1" vertex="1">
          <mxGeometry x="530" y="1418" width="240" height="20" as="geometry" />
        </mxCell>
        <mxCell id="LSGmILdVyqXVEuh26CQM-178" value="&lt;span style=&quot;font-size: 16px;&quot;&gt;VLAN 130 192.168.130.0/24&lt;/span&gt;" style="text;html=1;align=center;verticalAlign=middle;whiteSpace=wrap;rounded=0;" parent="1" vertex="1">
          <mxGeometry x="550" y="1413" width="205" height="30" as="geometry" />
        </mxCell>
        <mxCell id="LSGmILdVyqXVEuh26CQM-179" value="" style="rounded=1;whiteSpace=wrap;html=1;dashed=1;fillColor=none;points=[[0,0,0,0,0],[0,0.17,0,0,0],[0,0.29,0,0,0],[0,0.43,0,0,0],[0,0.56,0,0,0],[0,0.7,0,0,0],[0,0.83,0,0,0],[0,1,0,0,0],[0.16,0,0,0,0],[0.16,1,0,0,0],[0.28,0,0,0,0],[0.28,1,0,0,0],[0.4,0,0,0,0],[0.4,1,0,0,0],[0.59,0,0,0,0],[0.59,1,0,0,0],[0.7,0,0,0,0],[0.7,1,0,0,0],[0.82,0,0,0,0],[0.82,1,0,0,0],[1,0,0,0,0],[1,0.17,0,0,0],[1,0.29,0,0,0],[1,0.43,0,0,0],[1,0.56,0,0,0],[1,0.7,0,0,0],[1,0.83,0,0,0],[1,1,0,0,0]];" parent="1" vertex="1">
          <mxGeometry x="229.9899999999999" y="1051" width="210" height="210" as="geometry" />
        </mxCell>
        <mxCell id="LSGmILdVyqXVEuh26CQM-180" value="&lt;font style=&quot;font-size: 18px;&quot;&gt;VPC-02&lt;/font&gt;" style="text;html=1;align=center;verticalAlign=middle;whiteSpace=wrap;rounded=0;fontFamily=Helvetica;fontSize=11;fontColor=default;labelBackgroundColor=default;" parent="1" vertex="1">
          <mxGeometry x="275.36" y="1211" width="119.25" height="30" as="geometry" />
        </mxCell>
        <mxCell id="LSGmILdVyqXVEuh26CQM-181" value="" style="points=[[0.35,0,0],[0.98,0.51,0],[1,0.71,0],[0.67,1,0],[0,0.795,0],[0,0.65,0]];verticalLabelPosition=bottom;sketch=0;html=1;verticalAlign=top;aspect=fixed;align=center;pointerEvents=1;shape=mxgraph.cisco19.user;fillColor=#005073;strokeColor=none;fontFamily=Helvetica;fontSize=11;fontColor=default;labelBackgroundColor=default;" parent="1" vertex="1">
          <mxGeometry x="294.61" y="1097.25" width="100" height="100" as="geometry" />
        </mxCell>
        <mxCell id="LSGmILdVyqXVEuh26CQM-182" value="" style="rounded=1;whiteSpace=wrap;html=1;dashed=1;fillColor=none;points=[[0,0,0,0,0],[0,0.17,0,0,0],[0,0.29,0,0,0],[0,0.43,0,0,0],[0,0.56,0,0,0],[0,0.7,0,0,0],[0,0.83,0,0,0],[0,1,0,0,0],[0.16,0,0,0,0],[0.16,1,0,0,0],[0.28,0,0,0,0],[0.28,1,0,0,0],[0.4,0,0,0,0],[0.4,1,0,0,0],[0.59,0,0,0,0],[0.59,1,0,0,0],[0.7,0,0,0,0],[0.7,1,0,0,0],[0.82,0,0,0,0],[0.82,1,0,0,0],[1,0,0,0,0],[1,0.17,0,0,0],[1,0.29,0,0,0],[1,0.43,0,0,0],[1,0.56,0,0,0],[1,0.7,0,0,0],[1,0.83,0,0,0],[1,1,0,0,0]];" parent="1" vertex="1">
          <mxGeometry x="229.9899999999999" y="1310" width="210" height="210" as="geometry" />
        </mxCell>
        <mxCell id="LSGmILdVyqXVEuh26CQM-183" value="&lt;font style=&quot;font-size: 18px;&quot;&gt;VPC-03&lt;/font&gt;" style="text;html=1;align=center;verticalAlign=middle;whiteSpace=wrap;rounded=0;fontFamily=Helvetica;fontSize=11;fontColor=default;labelBackgroundColor=default;" parent="1" vertex="1">
          <mxGeometry x="275.73" y="1470" width="119.25" height="30" as="geometry" />
        </mxCell>
        <mxCell id="LSGmILdVyqXVEuh26CQM-184" value="" style="points=[[0.35,0,0],[0.98,0.51,0],[1,0.71,0],[0.67,1,0],[0,0.795,0],[0,0.65,0]];verticalLabelPosition=bottom;sketch=0;html=1;verticalAlign=top;aspect=fixed;align=center;pointerEvents=1;shape=mxgraph.cisco19.user;fillColor=#005073;strokeColor=none;fontFamily=Helvetica;fontSize=11;fontColor=default;labelBackgroundColor=default;" parent="1" vertex="1">
          <mxGeometry x="294.98" y="1350.25" width="100" height="100" as="geometry" />
        </mxCell>
        <mxCell id="LSGmILdVyqXVEuh26CQM-185" style="edgeStyle=orthogonalEdgeStyle;shape=connector;rounded=0;orthogonalLoop=1;jettySize=auto;html=1;exitX=1;exitY=0.5;exitDx=0;exitDy=0;exitPerimeter=0;entryX=0;entryY=0.17;entryDx=0;entryDy=0;entryPerimeter=0;strokeColor=default;align=center;verticalAlign=middle;fontFamily=Helvetica;fontSize=11;fontColor=default;labelBackgroundColor=default;endArrow=none;endFill=0;" parent="1" source="LSGmILdVyqXVEuh26CQM-173" target="LSGmILdVyqXVEuh26CQM-165" edge="1">
          <mxGeometry relative="1" as="geometry" />
        </mxCell>
        <mxCell id="LSGmILdVyqXVEuh26CQM-186" style="edgeStyle=orthogonalEdgeStyle;shape=connector;rounded=0;orthogonalLoop=1;jettySize=auto;html=1;exitX=1;exitY=0.5;exitDx=0;exitDy=0;exitPerimeter=0;entryX=0;entryY=0.83;entryDx=0;entryDy=0;entryPerimeter=0;strokeColor=default;align=center;verticalAlign=middle;fontFamily=Helvetica;fontSize=11;fontColor=default;labelBackgroundColor=default;endArrow=none;endFill=0;" parent="1" source="LSGmILdVyqXVEuh26CQM-177" target="LSGmILdVyqXVEuh26CQM-165" edge="1">
          <mxGeometry relative="1" as="geometry" />
        </mxCell>
        <mxCell id="LSGmILdVyqXVEuh26CQM-187" style="edgeStyle=orthogonalEdgeStyle;shape=connector;rounded=0;orthogonalLoop=1;jettySize=auto;html=1;exitX=1;exitY=0.43;exitDx=0;exitDy=0;exitPerimeter=0;entryX=0;entryY=0.5;entryDx=0;entryDy=0;entryPerimeter=0;strokeColor=default;align=center;verticalAlign=middle;fontFamily=Helvetica;fontSize=11;fontColor=default;labelBackgroundColor=default;endArrow=none;endFill=0;" parent="1" source="LSGmILdVyqXVEuh26CQM-165" target="LSGmILdVyqXVEuh26CQM-170" edge="1">
          <mxGeometry relative="1" as="geometry" />
        </mxCell>
        <mxCell id="LSGmILdVyqXVEuh26CQM-188" style="edgeStyle=orthogonalEdgeStyle;shape=connector;rounded=0;orthogonalLoop=1;jettySize=auto;html=1;exitX=1;exitY=0.43;exitDx=0;exitDy=0;exitPerimeter=0;entryX=0;entryY=0.5;entryDx=0;entryDy=0;entryPerimeter=0;strokeColor=default;align=center;verticalAlign=middle;fontFamily=Helvetica;fontSize=11;fontColor=default;labelBackgroundColor=default;endArrow=none;endFill=0;" parent="1" source="LSGmILdVyqXVEuh26CQM-162" target="LSGmILdVyqXVEuh26CQM-173" edge="1">
          <mxGeometry relative="1" as="geometry" />
        </mxCell>
        <mxCell id="LSGmILdVyqXVEuh26CQM-189" style="edgeStyle=orthogonalEdgeStyle;shape=connector;rounded=0;orthogonalLoop=1;jettySize=auto;html=1;exitX=0;exitY=0.43;exitDx=0;exitDy=0;exitPerimeter=0;entryX=1;entryY=0.5;entryDx=0;entryDy=0;entryPerimeter=0;strokeColor=default;align=center;verticalAlign=middle;fontFamily=Helvetica;fontSize=11;fontColor=default;labelBackgroundColor=default;endArrow=none;endFill=0;" parent="1" source="LSGmILdVyqXVEuh26CQM-165" target="LSGmILdVyqXVEuh26CQM-175" edge="1">
          <mxGeometry relative="1" as="geometry" />
        </mxCell>
        <mxCell id="LSGmILdVyqXVEuh26CQM-190" style="edgeStyle=orthogonalEdgeStyle;shape=connector;rounded=0;orthogonalLoop=1;jettySize=auto;html=1;exitX=0;exitY=0.5;exitDx=0;exitDy=0;exitPerimeter=0;entryX=1;entryY=0.43;entryDx=0;entryDy=0;entryPerimeter=0;strokeColor=default;align=center;verticalAlign=middle;fontFamily=Helvetica;fontSize=11;fontColor=default;labelBackgroundColor=default;endArrow=none;endFill=0;" parent="1" source="LSGmILdVyqXVEuh26CQM-175" target="LSGmILdVyqXVEuh26CQM-179" edge="1">
          <mxGeometry relative="1" as="geometry" />
        </mxCell>
        <mxCell id="LSGmILdVyqXVEuh26CQM-191" style="edgeStyle=orthogonalEdgeStyle;shape=connector;rounded=0;orthogonalLoop=1;jettySize=auto;html=1;exitX=1;exitY=0.56;exitDx=0;exitDy=0;exitPerimeter=0;entryX=0;entryY=0.5;entryDx=0;entryDy=0;entryPerimeter=0;strokeColor=default;align=center;verticalAlign=middle;fontFamily=Helvetica;fontSize=11;fontColor=default;labelBackgroundColor=default;endArrow=none;endFill=0;" parent="1" source="LSGmILdVyqXVEuh26CQM-182" target="LSGmILdVyqXVEuh26CQM-177" edge="1">
          <mxGeometry relative="1" as="geometry" />
        </mxCell>
        <mxCell id="LSGmILdVyqXVEuh26CQM-192" value="" style="outlineConnect=0;fillColor=none;strokeColor=#036897;gradientColor=none;gradientDirection=north;strokeWidth=2;shape=mxgraph.networks.bus;gradientColor=none;gradientDirection=north;fontColor=default;perimeter=backbonePerimeter;backboneSize=20;fontFamily=Helvetica;fontSize=11;labelBackgroundColor=default;points=[[0,0.5,0,0,0],[0.11,0,0,0,0],[0.11,1,0,0,0],[0.22,0,0,0,0],[0.22,1,0,0,0],[0.33,0,0,0,0],[0.33,1,0,0,0],[0.44,0,0,0,0],[0.44,1,0,0,0],[0.56,0,0,0,0],[0.56,1,0,0,0],[0.67,0,0,0,0],[0.67,1,0,0,0],[0.78,0,0,0,0],[0.78,1,0,0,0],[0.89,0,0,0,0],[0.89,1,0,0,0],[1,0.5,0,0,0]];movable=1;resizable=1;rotatable=1;deletable=1;editable=1;locked=0;connectable=1;html=1;" parent="1" vertex="1">
          <mxGeometry x="1714.5" y="1135" width="240" height="14" as="geometry" />
        </mxCell>
        <mxCell id="LSGmILdVyqXVEuh26CQM-193" value="&lt;span style=&quot;font-size: 16px;&quot;&gt;14.1.2.0/30&lt;/span&gt;" style="text;html=1;align=center;verticalAlign=middle;whiteSpace=wrap;rounded=0;" parent="1" vertex="1">
          <mxGeometry x="1734.5" y="1130" width="205" height="24" as="geometry" />
        </mxCell>
        <mxCell id="LSGmILdVyqXVEuh26CQM-194" style="edgeStyle=orthogonalEdgeStyle;shape=connector;rounded=0;orthogonalLoop=1;jettySize=auto;html=1;exitX=1;exitY=0.5;exitDx=0;exitDy=0;exitPerimeter=0;entryX=0;entryY=0.43;entryDx=0;entryDy=0;entryPerimeter=0;strokeColor=default;align=center;verticalAlign=middle;fontFamily=Helvetica;fontSize=11;fontColor=default;labelBackgroundColor=default;endArrow=none;endFill=0;" parent="1" source="LSGmILdVyqXVEuh26CQM-170" target="LSGmILdVyqXVEuh26CQM-167" edge="1">
          <mxGeometry relative="1" as="geometry" />
        </mxCell>
        <mxCell id="LSGmILdVyqXVEuh26CQM-195" style="edgeStyle=orthogonalEdgeStyle;shape=connector;rounded=0;orthogonalLoop=1;jettySize=auto;html=1;exitX=1;exitY=0.5;exitDx=0;exitDy=0;exitPerimeter=0;entryX=0;entryY=0.43;entryDx=0;entryDy=0;entryPerimeter=0;strokeColor=default;align=center;verticalAlign=middle;fontFamily=Helvetica;fontSize=11;fontColor=default;labelBackgroundColor=default;endArrow=none;endFill=0;" parent="1" source="LSGmILdVyqXVEuh26CQM-23" target="LSGmILdVyqXVEuh26CQM-14" edge="1">
          <mxGeometry relative="1" as="geometry" />
        </mxCell>
        <mxCell id="LSGmILdVyqXVEuh26CQM-196" style="edgeStyle=orthogonalEdgeStyle;shape=connector;rounded=0;orthogonalLoop=1;jettySize=auto;html=1;exitX=1;exitY=0.43;exitDx=0;exitDy=0;exitPerimeter=0;entryX=0;entryY=0.5;entryDx=0;entryDy=0;entryPerimeter=0;strokeColor=default;align=center;verticalAlign=middle;fontFamily=Helvetica;fontSize=11;fontColor=default;labelBackgroundColor=default;endArrow=none;endFill=0;" parent="1" source="LSGmILdVyqXVEuh26CQM-14" target="LSGmILdVyqXVEuh26CQM-54" edge="1">
          <mxGeometry relative="1" as="geometry" />
        </mxCell>
        <mxCell id="LSGmILdVyqXVEuh26CQM-198" style="edgeStyle=orthogonalEdgeStyle;shape=connector;rounded=0;orthogonalLoop=1;jettySize=auto;html=1;exitX=1;exitY=0.43;exitDx=0;exitDy=0;exitPerimeter=0;entryX=0;entryY=0.5;entryDx=0;entryDy=0;entryPerimeter=0;strokeColor=default;align=center;verticalAlign=middle;fontFamily=Helvetica;fontSize=11;fontColor=default;labelBackgroundColor=default;endArrow=none;endFill=0;" parent="1" source="LSGmILdVyqXVEuh26CQM-167" target="LSGmILdVyqXVEuh26CQM-192" edge="1">
          <mxGeometry relative="1" as="geometry" />
        </mxCell>
        <mxCell id="LSGmILdVyqXVEuh26CQM-199" style="edgeStyle=orthogonalEdgeStyle;shape=connector;rounded=0;orthogonalLoop=1;jettySize=auto;html=1;exitX=1;exitY=0.5;exitDx=0;exitDy=0;exitPerimeter=0;entryX=0.4;entryY=1;entryDx=0;entryDy=0;entryPerimeter=0;strokeColor=default;align=center;verticalAlign=middle;fontFamily=Helvetica;fontSize=11;fontColor=default;labelBackgroundColor=default;endArrow=none;endFill=0;" parent="1" source="LSGmILdVyqXVEuh26CQM-192" target="LSGmILdVyqXVEuh26CQM-8" edge="1">
          <mxGeometry relative="1" as="geometry" />
        </mxCell>
        <mxCell id="LSGmILdVyqXVEuh26CQM-201" value="&lt;span style=&quot;font-size: 18px;&quot;&gt;OSPF Area0&lt;/span&gt;&lt;div&gt;&lt;span style=&quot;font-size: 18px;&quot;&gt;BGP AS 65100&lt;/span&gt;&lt;/div&gt;" style="text;html=1;align=center;verticalAlign=middle;whiteSpace=wrap;rounded=0;fontFamily=Helvetica;fontSize=11;fontColor=default;labelBackgroundColor=default;" parent="1" vertex="1">
          <mxGeometry x="1370" y="1490" width="148.12" height="30" as="geometry" />
        </mxCell>
        <mxCell id="LSGmILdVyqXVEuh26CQM-202" value="&lt;span style=&quot;font-size: 18px;&quot;&gt;OSPF Area0&lt;/span&gt;&lt;div&gt;&lt;span style=&quot;font-size: 18px;&quot;&gt;BGP AS 65200&lt;/span&gt;&lt;/div&gt;" style="text;html=1;align=center;verticalAlign=middle;whiteSpace=wrap;rounded=0;fontFamily=Helvetica;fontSize=11;fontColor=default;labelBackgroundColor=default;" parent="1" vertex="1">
          <mxGeometry x="1370" y="420" width="148.12" height="30" as="geometry" />
        </mxCell>
        <mxCell id="LSGmILdVyqXVEuh26CQM-203" value="&lt;span style=&quot;font-size: 18px;&quot;&gt;IS-IS&lt;/span&gt;&lt;br&gt;&lt;div&gt;&lt;span style=&quot;font-size: 18px;&quot;&gt;BGP AS 65300&lt;/span&gt;&lt;/div&gt;" style="text;html=1;align=center;verticalAlign=middle;whiteSpace=wrap;rounded=0;fontFamily=Helvetica;fontSize=11;fontColor=default;labelBackgroundColor=default;" parent="1" vertex="1">
          <mxGeometry x="2621.88" y="420" width="148.12" height="30" as="geometry" />
        </mxCell>
        <mxCell id="LSGmILdVyqXVEuh26CQM-204" value="&lt;span style=&quot;font-size: 18px;&quot;&gt;Headquarter&lt;/span&gt;" style="text;html=1;align=center;verticalAlign=middle;whiteSpace=wrap;rounded=0;fontFamily=Helvetica;fontSize=11;fontColor=default;labelBackgroundColor=default;" parent="1" vertex="1">
          <mxGeometry x="1370" y="774.63" width="148.12" height="30" as="geometry" />
        </mxCell>
        <mxCell id="LSGmILdVyqXVEuh26CQM-205" value="&lt;span style=&quot;font-size: 18px;&quot;&gt;Branch-01&lt;/span&gt;" style="text;html=1;align=center;verticalAlign=middle;whiteSpace=wrap;rounded=0;fontFamily=Helvetica;fontSize=11;fontColor=default;labelBackgroundColor=default;" parent="1" vertex="1">
          <mxGeometry x="1370" y="-295.37" width="148.12" height="30" as="geometry" />
        </mxCell>
        <mxCell id="LSGmILdVyqXVEuh26CQM-206" value="&lt;span style=&quot;font-size: 18px;&quot;&gt;Branch-02&lt;/span&gt;" style="text;html=1;align=center;verticalAlign=middle;whiteSpace=wrap;rounded=0;fontFamily=Helvetica;fontSize=11;fontColor=default;labelBackgroundColor=default;" parent="1" vertex="1">
          <mxGeometry x="2621.88" y="-295.37" width="148.12" height="30" as="geometry" />
        </mxCell>
        <mxCell id="LSGmILdVyqXVEuh26CQM-207" value="&lt;span style=&quot;font-size: 16px;&quot;&gt;.254&lt;/span&gt;" style="text;html=1;align=center;verticalAlign=middle;whiteSpace=wrap;rounded=0;" parent="1" vertex="1">
          <mxGeometry x="815.25" y="1060" width="64.75" height="30" as="geometry" />
        </mxCell>
        <mxCell id="LSGmILdVyqXVEuh26CQM-208" value="&lt;span style=&quot;font-size: 16px;&quot;&gt;.254&lt;/span&gt;" style="text;html=1;align=center;verticalAlign=middle;whiteSpace=wrap;rounded=0;" parent="1" vertex="1">
          <mxGeometry x="815.25" y="1115" width="64.75" height="30" as="geometry" />
        </mxCell>
        <mxCell id="LSGmILdVyqXVEuh26CQM-209" value="&lt;span style=&quot;font-size: 16px;&quot;&gt;.254&lt;/span&gt;" style="text;html=1;align=center;verticalAlign=middle;whiteSpace=wrap;rounded=0;" parent="1" vertex="1">
          <mxGeometry x="815.25" y="1198.25" width="64.75" height="30" as="geometry" />
        </mxCell>
        <mxCell id="LSGmILdVyqXVEuh26CQM-211" value="&lt;span style=&quot;font-size: 16px;&quot;&gt;.10&lt;/span&gt;" style="text;html=1;align=center;verticalAlign=middle;whiteSpace=wrap;rounded=0;" parent="1" vertex="1">
          <mxGeometry x="430" y="840" width="64.75" height="30" as="geometry" />
        </mxCell>
        <mxCell id="LSGmILdVyqXVEuh26CQM-212" value="&lt;span style=&quot;font-size: 16px;&quot;&gt;.20&lt;/span&gt;" style="text;html=1;align=center;verticalAlign=middle;whiteSpace=wrap;rounded=0;" parent="1" vertex="1">
          <mxGeometry x="430" y="1116" width="64.75" height="29" as="geometry" />
        </mxCell>
        <mxCell id="LSGmILdVyqXVEuh26CQM-213" value="&lt;span style=&quot;font-size: 16px;&quot;&gt;.30&lt;/span&gt;" style="text;html=1;align=center;verticalAlign=middle;whiteSpace=wrap;rounded=0;" parent="1" vertex="1">
          <mxGeometry x="430" y="1400" width="64.75" height="30" as="geometry" />
        </mxCell>
        <mxCell id="LSGmILdVyqXVEuh26CQM-214" value="&lt;span style=&quot;font-size: 16px;&quot;&gt;.1&lt;/span&gt;" style="text;html=1;align=center;verticalAlign=middle;whiteSpace=wrap;rounded=0;" parent="1" vertex="1">
          <mxGeometry x="1599.25" y="1116" width="64.75" height="30" as="geometry" />
        </mxCell>
        <mxCell id="LSGmILdVyqXVEuh26CQM-215" value="&lt;span style=&quot;font-size: 16px;&quot;&gt;.2&lt;/span&gt;" style="text;html=1;align=center;verticalAlign=middle;whiteSpace=wrap;rounded=0;" parent="1" vertex="1">
          <mxGeometry x="2035" y="191" width="64.75" height="30" as="geometry" />
        </mxCell>
        <mxCell id="LSGmILdVyqXVEuh26CQM-216" value="&lt;span style=&quot;font-size: 16px;&quot;&gt;.2&lt;/span&gt;" style="text;html=1;align=center;verticalAlign=middle;whiteSpace=wrap;rounded=0;" parent="1" vertex="1">
          <mxGeometry x="1950" y="46" width="64.75" height="30" as="geometry" />
        </mxCell>
        <mxCell id="LSGmILdVyqXVEuh26CQM-217" value="&lt;span style=&quot;font-size: 16px;&quot;&gt;.1&lt;/span&gt;" style="text;html=1;align=center;verticalAlign=middle;whiteSpace=wrap;rounded=0;" parent="1" vertex="1">
          <mxGeometry x="1596.16" y="46" width="64.75" height="29" as="geometry" />
        </mxCell>
        <mxCell id="LSGmILdVyqXVEuh26CQM-218" value="&lt;span style=&quot;font-size: 16px;&quot;&gt;.10&lt;/span&gt;" style="text;html=1;align=center;verticalAlign=middle;whiteSpace=wrap;rounded=0;" parent="1" vertex="1">
          <mxGeometry x="430" y="-230" width="64.75" height="25" as="geometry" />
        </mxCell>
        <mxCell id="LSGmILdVyqXVEuh26CQM-219" value="&lt;span style=&quot;font-size: 16px;&quot;&gt;.254&lt;/span&gt;" style="text;html=1;align=center;verticalAlign=middle;whiteSpace=wrap;rounded=0;" parent="1" vertex="1">
          <mxGeometry x="815.25" y="-10" width="64.75" height="29" as="geometry" />
        </mxCell>
        <mxCell id="LSGmILdVyqXVEuh26CQM-220" value="&lt;span style=&quot;font-size: 16px;&quot;&gt;.254&lt;/span&gt;" style="text;html=1;align=center;verticalAlign=middle;whiteSpace=wrap;rounded=0;" parent="1" vertex="1">
          <mxGeometry x="815.25" y="127.25" width="64.75" height="29" as="geometry" />
        </mxCell>
        <mxCell id="LSGmILdVyqXVEuh26CQM-221" value="&lt;span style=&quot;font-size: 16px;&quot;&gt;.254&lt;/span&gt;" style="text;html=1;align=center;verticalAlign=middle;whiteSpace=wrap;rounded=0;" parent="1" vertex="1">
          <mxGeometry x="815.25" y="46" width="64.75" height="25" as="geometry" />
        </mxCell>
        <mxCell id="LSGmILdVyqXVEuh26CQM-222" value="&lt;span style=&quot;font-size: 16px;&quot;&gt;.20&lt;/span&gt;" style="text;html=1;align=center;verticalAlign=middle;whiteSpace=wrap;rounded=0;" parent="1" vertex="1">
          <mxGeometry x="430" y="44" width="64.75" height="29" as="geometry" />
        </mxCell>
        <mxCell id="LSGmILdVyqXVEuh26CQM-223" value="&lt;span style=&quot;font-size: 16px;&quot;&gt;.30&lt;/span&gt;" style="text;html=1;align=center;verticalAlign=middle;whiteSpace=wrap;rounded=0;" parent="1" vertex="1">
          <mxGeometry x="430" y="330.5" width="64.75" height="29" as="geometry" />
        </mxCell>
        <mxCell id="LSGmILdVyqXVEuh26CQM-224" value="&lt;span style=&quot;font-size: 16px;&quot;&gt;.2&lt;/span&gt;" style="text;html=1;align=center;verticalAlign=middle;whiteSpace=wrap;rounded=0;" parent="1" vertex="1">
          <mxGeometry x="2190" y="45.5" width="64.75" height="30" as="geometry" />
        </mxCell>
        <mxCell id="LSGmILdVyqXVEuh26CQM-225" value="&lt;span style=&quot;font-size: 16px;&quot;&gt;.1&lt;/span&gt;" style="text;html=1;align=center;verticalAlign=middle;whiteSpace=wrap;rounded=0;" parent="1" vertex="1">
          <mxGeometry x="2510" y="46.5" width="64.75" height="29" as="geometry" />
        </mxCell>
        <mxCell id="LSGmILdVyqXVEuh26CQM-226" value="" style="outlineConnect=0;fillColor=none;strokeColor=#036897;gradientColor=none;gradientDirection=north;strokeWidth=2;shape=mxgraph.networks.bus;gradientColor=none;gradientDirection=north;fontColor=default;perimeter=backbonePerimeter;backboneSize=20;fontFamily=Helvetica;fontSize=11;labelBackgroundColor=default;points=[[0,0.5,0,0,0],[0.11,0,0,0,0],[0.11,1,0,0,0],[0.22,0,0,0,0],[0.22,1,0,0,0],[0.33,0,0,0,0],[0.33,1,0,0,0],[0.44,0,0,0,0],[0.44,1,0,0,0],[0.56,0,0,0,0],[0.56,1,0,0,0],[0.67,0,0,0,0],[0.67,1,0,0,0],[0.78,0,0,0,0],[0.78,1,0,0,0],[0.89,0,0,0,0],[0.89,1,0,0,0],[1,0.5,0,0,0]];movable=1;resizable=1;rotatable=1;deletable=1;editable=1;locked=0;connectable=1;html=1;" parent="1" vertex="1">
          <mxGeometry x="2839" y="118" width="240" height="20" as="geometry" />
        </mxCell>
        <mxCell id="LSGmILdVyqXVEuh26CQM-227" value="&lt;span style=&quot;font-size: 16px;&quot;&gt;10.0.2.2-3/31&lt;/span&gt;" style="text;html=1;align=center;verticalAlign=middle;whiteSpace=wrap;rounded=0;" parent="1" vertex="1">
          <mxGeometry x="2859" y="113" width="205" height="30" as="geometry" />
        </mxCell>
        <mxCell id="LSGmILdVyqXVEuh26CQM-228" style="edgeStyle=orthogonalEdgeStyle;shape=connector;rounded=0;orthogonalLoop=1;jettySize=auto;html=1;exitX=1;exitY=0.29;exitDx=0;exitDy=0;exitPerimeter=0;entryX=0;entryY=0.5;entryDx=0;entryDy=0;entryPerimeter=0;strokeColor=default;align=center;verticalAlign=middle;fontFamily=Helvetica;fontSize=11;fontColor=default;labelBackgroundColor=default;endArrow=none;endFill=0;" parent="1" source="LSGmILdVyqXVEuh26CQM-100" target="LSGmILdVyqXVEuh26CQM-136" edge="1">
          <mxGeometry relative="1" as="geometry" />
        </mxCell>
        <mxCell id="LSGmILdVyqXVEuh26CQM-229" style="edgeStyle=orthogonalEdgeStyle;shape=connector;rounded=0;orthogonalLoop=1;jettySize=auto;html=1;exitX=1;exitY=0.5;exitDx=0;exitDy=0;exitPerimeter=0;entryX=0;entryY=0.29;entryDx=0;entryDy=0;entryPerimeter=0;strokeColor=default;align=center;verticalAlign=middle;fontFamily=Helvetica;fontSize=11;fontColor=default;labelBackgroundColor=default;endArrow=none;endFill=0;" parent="1" source="LSGmILdVyqXVEuh26CQM-136" target="LSGmILdVyqXVEuh26CQM-98" edge="1">
          <mxGeometry relative="1" as="geometry" />
        </mxCell>
        <mxCell id="LSGmILdVyqXVEuh26CQM-230" style="edgeStyle=orthogonalEdgeStyle;shape=connector;rounded=0;orthogonalLoop=1;jettySize=auto;html=1;exitX=1;exitY=0.7;exitDx=0;exitDy=0;exitPerimeter=0;entryX=0;entryY=0.5;entryDx=0;entryDy=0;entryPerimeter=0;strokeColor=default;align=center;verticalAlign=middle;fontFamily=Helvetica;fontSize=11;fontColor=default;labelBackgroundColor=default;endArrow=none;endFill=0;" parent="1" source="LSGmILdVyqXVEuh26CQM-100" target="LSGmILdVyqXVEuh26CQM-226" edge="1">
          <mxGeometry relative="1" as="geometry" />
        </mxCell>
        <mxCell id="LSGmILdVyqXVEuh26CQM-231" style="edgeStyle=orthogonalEdgeStyle;shape=connector;rounded=0;orthogonalLoop=1;jettySize=auto;html=1;exitX=1;exitY=0.5;exitDx=0;exitDy=0;exitPerimeter=0;entryX=0;entryY=0.7;entryDx=0;entryDy=0;entryPerimeter=0;strokeColor=default;align=center;verticalAlign=middle;fontFamily=Helvetica;fontSize=11;fontColor=default;labelBackgroundColor=default;endArrow=none;endFill=0;" parent="1" source="LSGmILdVyqXVEuh26CQM-226" target="LSGmILdVyqXVEuh26CQM-98" edge="1">
          <mxGeometry relative="1" as="geometry" />
        </mxCell>
        <mxCell id="LSGmILdVyqXVEuh26CQM-233" value="&lt;span style=&quot;font-size: 16px;&quot;&gt;.10&lt;/span&gt;" style="text;html=1;align=center;verticalAlign=middle;whiteSpace=wrap;rounded=0;" parent="1" vertex="1">
          <mxGeometry x="3730" y="-230" width="64.75" height="25" as="geometry" />
        </mxCell>
        <mxCell id="LSGmILdVyqXVEuh26CQM-234" value="&lt;span style=&quot;font-size: 16px;&quot;&gt;.20&lt;/span&gt;" style="text;html=1;align=center;verticalAlign=middle;whiteSpace=wrap;rounded=0;" parent="1" vertex="1">
          <mxGeometry x="3730" y="334.5" width="64.75" height="25" as="geometry" />
        </mxCell>
        <mxCell id="LSGmILdVyqXVEuh26CQM-235" value="&lt;span style=&quot;font-size: 16px;&quot;&gt;.254&lt;/span&gt;" style="text;html=1;align=center;verticalAlign=middle;whiteSpace=wrap;rounded=0;" parent="1" vertex="1">
          <mxGeometry x="3340" y="-8" width="64.75" height="25" as="geometry" />
        </mxCell>
        <mxCell id="LSGmILdVyqXVEuh26CQM-236" value="&lt;span style=&quot;font-size: 16px;&quot;&gt;.254&lt;/span&gt;" style="text;html=1;align=center;verticalAlign=middle;whiteSpace=wrap;rounded=0;" parent="1" vertex="1">
          <mxGeometry x="3340" y="131.25" width="64.75" height="25" as="geometry" />
        </mxCell>
      </root>
    </mxGraphModel>
  </diagram>
</mxfile>
